<svg version="1.1" id="Layer_1" xmlns="http://www.w3.org/2000/svg" xmlns:xlink="http://www.w3.org/1999/xlink" x="0px" y="0px"
	 width="100%" viewBox="0 0 1080 1080" enable-background="new 0 0 1080 1080" xml:space="preserve">
<path fill="#FFFFFF" opacity="1.000000" stroke="none" 
	d="
M626.000000,1081.000000 
	C417.357361,1081.000000 209.214706,1081.000000 1.036032,1081.000000 
	C1.036032,721.065552 1.036032,361.131134 1.036032,1.098345 
	C360.892883,1.098345 720.785767,1.098345 1080.839355,1.098345 
	C1080.839355,360.999939 1080.839355,720.999939 1080.839355,1081.000000 
	C929.464050,1081.000000 777.981995,1081.000000 626.000000,1081.000000 
M544.755737,817.140991 
	C528.929321,822.931946 517.645325,834.501648 506.141693,846.891235 
	C508.948730,848.064636 511.042297,849.034851 513.201172,849.827271 
	C530.678955,856.242188 548.173523,862.611389 565.654114,869.018677 
	C588.583435,877.422974 608.772156,889.675842 623.910583,909.433472 
	C635.681702,924.796570 642.443481,942.374390 648.047424,960.597839 
	C649.303894,964.683838 650.942261,968.835571 653.330627,972.322998 
	C654.811401,974.484863 658.260864,976.881104 660.414124,976.543213 
	C662.463928,976.221619 664.766174,972.734680 665.567688,970.199951 
	C667.365479,964.514526 668.315918,958.559631 669.583801,952.708496 
	C674.683594,929.173523 676.704224,905.574036 669.923767,882.032959 
	C665.368225,866.216675 660.777344,850.379639 655.304077,834.868774 
	C651.227051,823.314941 650.347107,812.821960 659.223938,803.182739 
	C659.445251,802.942444 659.586487,802.625061 659.749451,802.334778 
	C684.035278,759.063660 700.251099,712.728149 712.037476,664.706421 
	C722.781555,620.931641 728.764343,576.710876 723.745056,531.585388 
	C718.740967,486.596222 713.385071,441.646240 708.228149,396.673920 
	C708.084045,395.416870 708.159729,393.982483 708.629150,392.833466 
	C710.702942,387.756866 712.598877,382.557892 715.219360,377.764099 
	C721.696289,365.915863 730.264404,357.230438 745.320679,357.725128 
	C754.892944,358.039673 757.119629,354.874084 755.744324,345.305878 
	C755.673340,344.812500 755.530273,344.329926 755.434204,343.839691 
	C753.109680,331.980499 745.072083,324.547180 735.106323,319.318115 
	C707.966797,305.078003 678.875488,301.513702 648.788452,305.292999 
	C642.217102,306.118439 636.437988,305.064667 631.250671,301.472076 
	C625.104736,297.215515 619.167053,292.608490 613.466858,287.767426 
	C596.377380,273.253540 578.498535,259.992096 557.307861,251.992264 
	C510.222870,234.216919 462.013123,232.318039 413.398987,243.694153 
	C367.263062,254.490372 328.662689,278.289337 298.070435,314.708527 
	C280.862915,335.193542 268.131348,357.975861 267.357727,385.241882 
	C266.868652,402.478180 261.610992,415.848358 247.958511,426.824493 
	C240.748428,432.621124 235.044815,440.705353 229.939102,448.584869 
	C225.203369,455.893402 228.353302,461.586792 237.008759,461.926239 
	C245.573898,462.262177 254.358047,461.988190 262.767975,460.455536 
	C301.452332,453.405609 338.283325,439.470215 376.137421,429.304077 
	C385.746643,426.723389 395.431000,424.358368 405.181335,422.392883 
	C410.536469,421.313385 414.666046,422.977783 417.687683,428.552429 
	C431.198914,453.479218 446.452179,477.322937 464.408569,499.326874 
	C473.925201,510.988647 484.212097,521.964966 497.822998,528.969604 
	C511.394470,535.953979 522.749634,532.276062 530.512207,519.158142 
	C532.450256,515.883179 532.700134,512.844543 530.690186,509.831879 
	C527.651367,505.277161 524.685547,500.593079 521.056458,496.528473 
	C511.607330,485.945435 505.165527,473.830750 500.776184,460.011536 
	C508.871216,459.764038 515.941223,461.966370 521.845642,466.329407 
	C531.458069,473.432465 541.214417,480.597168 549.634155,489.012360 
	C581.367798,520.728943 605.245544,558.111389 626.909485,597.166626 
	C649.569458,638.017456 656.631836,681.419861 648.841492,726.976379 
	C645.100037,748.855347 638.568970,770.288147 632.727966,791.767151 
	C628.355957,807.844482 627.946228,807.635437 610.974304,807.868774 
	C588.786682,808.173767 566.693115,809.313538 544.755737,817.140991 
M285.470306,151.113754 
	C278.066711,153.010101 270.615234,154.744293 263.289886,156.905823 
	C261.207123,157.520401 258.203247,159.114746 257.873962,160.721359 
	C257.176422,164.125000 260.549225,164.548416 263.181152,165.211548 
	C294.443115,173.088120 325.687622,181.034119 356.963409,188.855072 
	C358.943329,189.350174 361.291077,189.466522 363.221100,188.907578 
	C402.012238,177.673599 441.644440,174.218872 481.823944,176.115646 
	C493.405151,176.662369 504.950928,177.958984 516.512939,178.911789 
	C515.023926,179.995850 513.579041,180.097168 512.132385,180.137283 
	C489.507111,180.764816 466.803284,180.420837 444.276093,182.251404 
	C416.522461,184.506668 389.501129,191.093399 363.427582,201.085342 
	C362.104004,201.592575 360.659515,203.781769 360.597534,205.244019 
	C360.301544,212.230652 360.458557,219.236694 360.464081,226.235825 
	C360.470673,234.567566 361.524231,235.378250 369.418732,232.957718 
	C394.525513,225.259766 420.325409,221.113785 446.407715,219.247925 
	C492.305420,215.964539 537.509949,220.428253 581.756653,233.462250 
	C587.234131,235.075790 588.816833,233.918320 588.845642,228.269531 
	C588.895020,218.604309 588.859924,208.938660 588.860107,199.273178 
	C588.860229,189.764069 588.850708,189.726837 597.924927,187.437119 
	C609.295654,184.567917 620.683777,181.767532 631.978638,178.958771 
	C632.331482,179.721313 632.579346,180.007172 632.579712,180.293350 
	C632.610596,204.289886 632.625305,228.286438 632.622437,252.282990 
	C632.622314,253.097885 632.712280,254.410904 632.285522,254.652283 
	C626.592224,257.872406 629.348816,263.246277 629.109741,267.650970 
	C628.702332,275.157349 628.998535,275.173431 636.219910,275.171509 
	C643.196533,275.169647 643.197083,275.169647 643.200500,267.936951 
	C643.201721,265.270599 643.306946,262.598022 643.151794,259.940674 
	C643.079102,258.695526 642.593872,257.443634 642.130737,256.259216 
	C641.430847,254.469284 639.916931,252.740143 639.905273,250.977493 
	C639.751953,227.814682 639.883972,204.649933 639.711792,181.487381 
	C639.686035,178.022888 640.592285,176.660172 644.052856,175.837662 
	C658.116699,172.495041 672.124634,168.898376 686.063782,165.069977 
	C688.222595,164.477066 689.915710,162.188721 691.824219,160.684433 
	C689.924255,159.396881 688.191711,157.445908 686.100037,156.917984 
	C618.905151,139.958588 551.698181,123.045219 484.410065,106.461372 
	C478.803894,105.079666 472.303528,104.783302 466.745331,106.140251 
	C406.532410,120.840172 346.424988,135.972122 285.470306,151.113754 
z"/>
<path fill="#1FA6BC" opacity="1.000000" stroke="none" 
	d="
M545.131836,817.035889 
	C566.693115,809.313538 588.786682,808.173767 610.974304,807.868774 
	C627.946228,807.635437 628.355957,807.844482 632.727966,791.767151 
	C638.568970,770.288147 645.100037,748.855347 648.841492,726.976379 
	C656.631836,681.419861 649.569458,638.017456 626.909485,597.166626 
	C605.245544,558.111389 581.367798,520.728943 549.634155,489.012360 
	C541.214417,480.597168 531.458069,473.432465 521.845642,466.329407 
	C515.941223,461.966370 508.871216,459.764038 500.776184,460.011536 
	C505.165527,473.830750 511.607330,485.945435 521.056458,496.528473 
	C524.685547,500.593079 527.651367,505.277161 530.690186,509.831879 
	C532.700134,512.844543 532.450256,515.883179 530.512207,519.158142 
	C522.749634,532.276062 511.394470,535.953979 497.822998,528.969604 
	C484.212097,521.964966 473.925201,510.988647 464.408569,499.326874 
	C446.452179,477.322937 431.198914,453.479218 417.687683,428.552429 
	C414.666046,422.977783 410.536469,421.313385 405.181335,422.392883 
	C395.431000,424.358368 385.746643,426.723389 376.137421,429.304077 
	C338.283325,439.470215 301.452332,453.405609 262.767975,460.455536 
	C254.358047,461.988190 245.573898,462.262177 237.008759,461.926239 
	C228.353302,461.586792 225.203369,455.893402 229.939102,448.584869 
	C235.044815,440.705353 240.748428,432.621124 247.958511,426.824493 
	C261.610992,415.848358 266.868652,402.478180 267.357727,385.241882 
	C268.131348,357.975861 280.862915,335.193542 298.070435,314.708527 
	C328.662689,278.289337 367.263062,254.490372 413.398987,243.694153 
	C462.013123,232.318039 510.222870,234.216919 557.307861,251.992264 
	C578.498535,259.992096 596.377380,273.253540 613.466858,287.767426 
	C619.167053,292.608490 625.104736,297.215515 631.250671,301.472076 
	C636.437988,305.064667 642.217102,306.118439 648.788452,305.292999 
	C678.875488,301.513702 707.966797,305.078003 735.106323,319.318115 
	C745.072083,324.547180 753.109680,331.980499 755.434204,343.839691 
	C755.530273,344.329926 755.673340,344.812500 755.744324,345.305878 
	C757.119629,354.874084 754.892944,358.039673 745.320679,357.725128 
	C730.264404,357.230438 721.696289,365.915863 715.219360,377.764099 
	C712.598877,382.557892 710.702942,387.756866 708.629150,392.833466 
	C708.159729,393.982483 708.084045,395.416870 708.228149,396.673920 
	C713.385071,441.646240 718.740967,486.596222 723.745056,531.585388 
	C728.764343,576.710876 722.781555,620.931641 712.037476,664.706421 
	C700.251099,712.728149 684.035278,759.063660 659.749451,802.334778 
	C659.586487,802.625061 659.445251,802.942444 659.223938,803.182739 
	C650.347107,812.821960 651.227051,823.314941 655.304077,834.868774 
	C660.777344,850.379639 665.368225,866.216675 669.923767,882.032959 
	C676.704224,905.574036 674.683594,929.173523 669.583801,952.708496 
	C668.315918,958.559631 667.365479,964.514526 665.567688,970.199951 
	C664.766174,972.734680 662.463928,976.221619 660.414124,976.543213 
	C658.260864,976.881104 654.811401,974.484863 653.330627,972.322998 
	C650.942261,968.835571 649.303894,964.683838 648.047424,960.597839 
	C642.443481,942.374390 635.681702,924.796570 623.910583,909.433472 
	C608.772156,889.675842 588.583435,877.422974 565.654114,869.018677 
	C548.173523,862.611389 530.678955,856.242188 513.201172,849.827271 
	C511.042297,849.034851 508.948730,848.064636 506.141693,846.891235 
	C517.645325,834.501648 528.929321,822.931946 545.131836,817.035889 
z"/>
<path fill="#020202" opacity="1.000000" stroke="none" 
	d="
M285.879517,151.049973 
	C346.424988,135.972122 406.532410,120.840172 466.745331,106.140251 
	C472.303528,104.783302 478.803894,105.079666 484.410065,106.461372 
	C551.698181,123.045219 618.905151,139.958588 686.100037,156.917984 
	C688.191711,157.445908 689.924255,159.396881 691.824219,160.684433 
	C689.915710,162.188721 688.222595,164.477066 686.063782,165.069977 
	C672.124634,168.898376 658.116699,172.495041 644.052856,175.837662 
	C640.592285,176.660172 639.686035,178.022888 639.711792,181.487381 
	C639.883972,204.649933 639.751953,227.814682 639.905273,250.977493 
	C639.916931,252.740143 641.430847,254.469284 642.130737,256.259216 
	C642.593872,257.443634 643.079102,258.695526 643.151794,259.940674 
	C643.306946,262.598022 643.201721,265.270599 643.200500,267.936951 
	C643.197083,275.169647 643.196533,275.169647 636.219910,275.171509 
	C628.998535,275.173431 628.702332,275.157349 629.109741,267.650970 
	C629.348816,263.246277 626.592224,257.872406 632.285522,254.652283 
	C632.712280,254.410904 632.622314,253.097885 632.622437,252.282990 
	C632.625305,228.286438 632.610596,204.289886 632.579712,180.293350 
	C632.579346,180.007172 632.331482,179.721313 631.978638,178.958771 
	C620.683777,181.767532 609.295654,184.567917 597.924927,187.437119 
	C588.850708,189.726837 588.860229,189.764069 588.860107,199.273178 
	C588.859924,208.938660 588.895020,218.604309 588.845642,228.269531 
	C588.816833,233.918320 587.234131,235.075790 581.756653,233.462250 
	C537.509949,220.428253 492.305420,215.964539 446.407715,219.247925 
	C420.325409,221.113785 394.525513,225.259766 369.418732,232.957718 
	C361.524231,235.378250 360.470673,234.567566 360.464081,226.235825 
	C360.458557,219.236694 360.301544,212.230652 360.597534,205.244019 
	C360.659515,203.781769 362.104004,201.592575 363.427582,201.085342 
	C389.501129,191.093399 416.522461,184.506668 444.276093,182.251404 
	C466.803284,180.420837 489.507111,180.764816 512.132385,180.137283 
	C513.579041,180.097168 515.023926,179.995850 516.512939,178.911789 
	C504.950928,177.958984 493.405151,176.662369 481.823944,176.115646 
	C441.644440,174.218872 402.012238,177.673599 363.221100,188.907578 
	C361.291077,189.466522 358.943329,189.350174 356.963409,188.855072 
	C325.687622,181.034119 294.443115,173.088120 263.181152,165.211548 
	C260.549225,164.548416 257.176422,164.125000 257.873962,160.721359 
	C258.203247,159.114746 261.207123,157.520401 263.289886,156.905823 
	C270.615234,154.744293 278.066711,153.010101 285.879517,151.049973 
z"/>
</svg>